 <svg  version="1.0" xmlns="http://www.w3.org/2000/svg"  width="300.000000pt" height="301.000000pt" viewBox="0 0 300.000000 301.000000"  preserveAspectRatio="xMidYMid meet">  <g transform="translate(0.000000,301.000000) scale(0.100000,-0.100000)" fill="#007bff" stroke="none"> <path d="M682 2446 c2 -8 84 -136 183 -285 l180 -271 639 0 c547 0 637 2 633 14 -3 8 -87 136 -186 285 l-181 271 -636 0 c-537 0 -635 -2 -632 -14z"/> <path d="M462 938 l3 -693 929 -3 c800 -2 927 0 923 12 -3 8 -87 136 -186 285 l-181 271 -460 0 -460 0 0 130 0 130 375 0 375 0 -188 280 -187 280 -473 0 -472 0 2 -692z"/> </g> </svg> 